<svg width="181" height="46" viewBox="0 0 181 46" fill="none" xmlns="http://www.w3.org/2000/svg">
<path d="M9.8 29.2L11 28.2V9.2L9.05 10.65L8.35 9.75L16.55 3.75V1.15H17.75V2.9L20.9 0.649997C26.8 4.51667 29.75 9.95 29.75 16.95C29.75 21.5833 28.4333 25.7167 25.8 29.35C23.1667 32.9833 19.65 34.8 15.25 34.8C11.1167 34.8 7.65 33.15 4.85 29.85C2.21667 26.7167 0.9 23.05 0.9 18.85C0.9 11.65 4.73333 5.75 12.4 1.15L13 1.85C12.4667 2.41666 11.9333 2.96666 11.4 3.5C10.8667 4.03333 10.3167 4.58333 9.75 5.15C8.48333 6.41667 7.6 7.7 7.1 9C6.26667 11 5.85 14.1333 5.85 18.4C5.85 28.5667 8.85 33.65 14.85 33.65C14.9167 33.65 15.0833 33.65 15.35 33.65C15.65 33.65 16.05 33.6333 16.55 33.6V5.3L14.8 6.55V26.65L10.5 30.1L9.8 29.2ZM25.35 23.65C24.1833 22.8833 22.8167 22.5 21.25 22.5C20.1167 22.5 18.95 22.7833 17.75 23.35V33.5C21.65 32.7333 24.1833 29.45 25.35 23.65ZM21.6 21.4C22.9 21.4 24.2167 21.7333 25.55 22.4C25.6167 21.2333 25.6667 20.35 25.7 19.75C25.7667 19.1167 25.8 18.7333 25.8 18.6C25.8 17.3 25.5 15.5667 24.9 13.4C23.6333 13.9333 22.35 14.2 21.05 14.2C19.8833 14.2 18.7833 13.9333 17.75 13.4V22.2C19.05 21.6667 20.3333 21.4 21.6 21.4ZM21.25 13C22.4167 13 23.55 12.75 24.65 12.25C23.7833 10.4833 22.8333 9 21.8 7.8C20.8333 6.7 19.4833 5.55 17.75 4.35V12.15C18.8833 12.7167 20.05 13 21.25 13ZM32.266 32.3L35.116 29.9V7.6C35.116 6.66666 34.9327 5.46666 34.566 4L35.666 3.65C35.8327 4.38333 35.966 5.03333 36.066 5.6C36.166 6.16667 36.2493 6.65 36.316 7.05C36.7827 5.51666 37.8327 3.88333 39.466 2.15L40.266 2.8C39.166 4.26667 38.616 5.98333 38.616 7.95V30.1L39.766 31.2L41.416 29.7L42.216 30.55L37.616 34.55L34.766 31.85L33.066 33.25L32.266 32.3ZM43.4129 32.4L45.8129 30.25V19.4L44.4629 19.35V18.2C45.0296 18.2333 45.4629 18.25 45.7629 18.25C46.0629 18.25 46.2462 18.25 46.3129 18.25C48.3462 18.25 50.3462 17.7833 52.3129 16.85L44.4629 8.1L48.6129 4.4L49.4129 5.25L47.8629 6.65L58.0129 17.95L59.5629 16.55L60.2629 17.45L58.2129 19.35V30.15H59.5629V31.3C55.3962 31.3 51.9796 32.3833 49.3129 34.55L45.4629 32.1L44.2129 33.25L43.4129 32.4ZM54.7129 30.4V19.3L53.2129 17.9C52.2129 18.3667 50.9129 18.7833 49.3129 19.15V29.7L51.9129 31.35L54.7129 30.4ZM115.511 45.65C113.211 45.65 111.261 44.95 109.661 43.55C108.028 42.1167 107.211 40.2667 107.211 38C107.211 35.3667 108.244 33.2667 110.311 31.7C112.244 30.2333 114.544 29.5 117.211 29.5V19.15C116.911 18.75 116.528 18.55 116.061 18.55C114.728 18.55 114.061 19.3167 114.061 20.85C114.061 21.2167 114.144 21.6 114.311 22L113.211 22.55C112.811 21.35 112.611 20.3 112.611 19.4C112.611 16.6667 114.144 15.3 117.211 15.3V5.45C116.178 4.88333 115.228 4.6 114.361 4.6C112.461 4.6 111.011 5.78333 110.011 8.15L108.961 7.75C109.228 6.81666 109.578 5.96666 110.011 5.2C110.478 4.4 110.994 3.66667 111.561 3C112.961 1.43333 114.511 0.649997 116.211 0.649997C117.811 0.649997 119.161 1.21666 120.261 2.35C120.628 2.71667 121.011 3.21666 121.411 3.85C121.811 4.48333 122.244 5.26666 122.711 6.2L125.411 11.55C126.611 12.55 128.178 13.05 130.111 13.05C131.544 13.05 132.894 12.6833 134.161 11.95V6.5C132.961 6.5 131.978 5.96667 131.211 4.9L128.711 7.35L127.911 6.5L133.761 0.649997C134.894 2.38333 135.911 3.25 136.811 3.25C137.244 3.25 138.061 2.58333 139.261 1.25L140.111 2.05L137.811 4.35C136.878 5.21666 136.044 5.9 135.311 6.4V35.1C133.011 34.7 131.128 33 129.661 30L127.161 24.65C126.794 24.0167 126.044 23.4667 124.911 23C123.878 22.6333 122.928 22.45 122.061 22.45C120.861 22.45 119.628 22.8167 118.361 23.55V29.5C120.028 29.6333 121.561 30.2 122.961 31.2L124.711 29.5L125.561 30.3L120.661 35.1C118.694 33.6 116.711 32.85 114.711 32.85C113.078 32.85 111.678 33.3333 110.511 34.3C109.311 35.3667 108.711 36.7 108.711 38.3C108.711 40.1 109.394 41.6 110.761 42.8C112.128 43.9667 113.711 44.55 115.511 44.55C115.878 44.55 116.361 44.5 116.961 44.4L117.211 45.5C116.511 45.6 115.944 45.65 115.511 45.65ZM122.111 21.35C123.578 21.35 124.894 21.6667 126.061 22.3L119.211 7.6C119.078 7.3 118.794 6.93333 118.361 6.5V22.3C119.494 21.6667 120.744 21.35 122.111 21.35ZM134.161 29V13.3C132.894 13.9 131.511 14.2 130.011 14.2C128.678 14.2 127.394 13.95 126.161 13.45L132.411 26.85C132.844 27.85 133.428 28.5667 134.161 29ZM139.798 32.3L142.248 30.05V19.45C141.915 19.4833 141.665 19.5 141.498 19.5C141.332 19.5 141.248 19.5 141.248 19.5C141.248 19.5 141.148 19.5 140.948 19.5C140.748 19.4667 140.432 19.4333 139.998 19.4V18.25C143.665 18.25 146.782 17.1667 149.348 15L154.648 21.6L145.748 27.5V30.3L148.048 31.7L152.498 28.7L153.148 29.7L145.748 34.55L141.748 32.1L140.548 33.25L139.798 32.3ZM150.748 22.75L147.098 18.3L145.748 18.75V26.15L150.748 22.75ZM155.277 32.4L157.627 30.35V21.25C156.394 20.1167 155.777 18.5833 155.777 16.65C155.777 14.0167 156.694 11.8833 158.527 10.25C160.26 8.71667 162.627 7.36666 165.627 6.2L165.877 7.2C161.11 9.16667 158.727 11.5333 158.727 14.3C158.727 15.8667 159.494 17.2667 161.027 18.5V29.6L163.177 31.6L165.877 29.9V22C165.877 20.4667 165.51 19.35 164.777 18.65L163.477 19.8L162.677 18.9L167.227 15C168.66 16.1333 169.377 17.9333 169.377 20.4V29.4L171.577 31.5C172.577 30.9333 173.544 30.55 174.477 30.35V20.35L172.427 18.35L171.027 19.55L170.277 18.7L174.477 15L177.777 18.05L179.727 16.45L180.477 17.35L177.777 19.65V30C177.977 29.9667 178.127 29.95 178.227 29.95C178.327 29.95 178.377 29.95 178.377 29.95C178.377 29.95 178.444 29.9667 178.577 30C178.71 30 178.91 30.0167 179.177 30.05L179.227 31.2C178.794 31.1667 178.444 31.15 178.177 31.15C177.91 31.15 177.744 31.15 177.677 31.15C174.477 31.15 171.71 32.2833 169.377 34.55L165.777 31.3L160.577 34.55L157.627 31.85L156.027 33.25L155.277 32.4Z" fill="black"/>
<path d="M72.2023 29.2L73.4023 28.2V9.2L71.4523 10.65L70.7523 9.75L78.9523 3.75V1.15H80.1523V2.9L83.3023 0.649997C89.2023 4.51667 92.1523 9.95 92.1523 16.95C92.1523 21.5833 90.8357 25.7167 88.2023 29.35C85.569 32.9833 82.0523 34.8 77.6523 34.8C73.519 34.8 70.0523 33.15 67.2523 29.85C64.619 26.7167 63.3023 23.05 63.3023 18.85C63.3023 11.65 67.1357 5.75 74.8023 1.15L75.4023 1.85C74.869 2.41666 74.3357 2.96666 73.8023 3.5C73.269 4.03333 72.719 4.58333 72.1523 5.15C70.8857 6.41667 70.0023 7.7 69.5023 9C68.669 11 68.2523 14.1333 68.2523 18.4C68.2523 28.5667 71.2523 33.65 77.2523 33.65C77.319 33.65 77.4857 33.65 77.7523 33.65C78.0523 33.65 78.4523 33.6333 78.9523 33.6V5.3L77.2023 6.55V26.65L72.9023 30.1L72.2023 29.2ZM87.7523 23.65C86.5857 22.8833 85.219 22.5 83.6523 22.5C82.519 22.5 81.3523 22.7833 80.1523 23.35V33.5C84.0523 32.7333 86.5857 29.45 87.7523 23.65ZM84.0023 21.4C85.3023 21.4 86.619 21.7333 87.9523 22.4C88.019 21.2333 88.069 20.35 88.1023 19.75C88.169 19.1167 88.2023 18.7333 88.2023 18.6C88.2023 17.3 87.9023 15.5667 87.3023 13.4C86.0357 13.9333 84.7523 14.2 83.4523 14.2C82.2857 14.2 81.1857 13.9333 80.1523 13.4V22.2C81.4523 21.6667 82.7357 21.4 84.0023 21.4ZM83.6523 13C84.819 13 85.9523 12.75 87.0523 12.25C86.1857 10.4833 85.2357 9 84.2023 7.8C83.2357 6.7 81.8857 5.55 80.1523 4.35V12.15C81.2857 12.7167 82.4523 13 83.6523 13Z" fill="#A5A5A5"/>
<path d="M95.0684 32.3L97.6184 30V22.15C97.6184 20.65 97.2684 19.5 96.5684 18.7L95.1184 19.9L94.3684 19L99.0184 15C100.252 16.4333 100.952 17.75 101.118 18.95L104.018 15C105.518 17.1333 106.502 18.2 106.968 18.2C107.202 18.2 107.435 18.0333 107.668 17.7C107.768 17.5667 107.868 17.4333 107.968 17.3C108.068 17.1667 108.168 17.0333 108.268 16.9L109.218 17.6C108.152 19.0667 107.618 19.8 107.618 19.8C106.852 20.6 106.102 21 105.368 21C104.468 21 103.468 20.4 102.368 19.2L101.118 20.9V29.95L103.418 31.55L105.568 30.05L106.268 31L101.118 34.55L97.2184 31.85L95.8184 33.15L95.0684 32.3Z" fill="#FD0103"/>
</svg>
