<svg width="162" height="298" viewBox="0 0 162 298" fill="none" xmlns="http://www.w3.org/2000/svg">
<path d="M39.1174 63.44L41.7574 61.24V19.44L37.4674 22.63L35.9274 20.65L53.9674 7.45V1.73H56.6074V5.58L63.5374 0.629994C76.5174 9.13666 83.0074 21.09 83.0074 36.49C83.0074 46.6833 80.1108 55.7767 74.3174 63.77C68.5241 71.7633 60.7874 75.76 51.1074 75.76C42.0141 75.76 34.3874 72.13 28.2274 64.87C22.4341 57.9767 19.5374 49.91 19.5374 40.67C19.5374 24.83 27.9708 11.85 44.8374 1.73L46.1574 3.27C44.9841 4.51666 43.8108 5.72666 42.6374 6.9C41.4641 8.07333 40.2541 9.28333 39.0074 10.53C36.2208 13.3167 34.2774 16.14 33.1774 19C31.3441 23.4 30.4274 30.2933 30.4274 39.68C30.4274 62.0467 37.0274 73.23 50.2274 73.23C50.3741 73.23 50.7408 73.23 51.3274 73.23C51.9874 73.23 52.8674 73.1933 53.9674 73.12V10.86L50.1174 13.61V57.83L40.6574 65.42L39.1174 63.44ZM73.3274 51.23C70.7608 49.5433 67.7541 48.7 64.3074 48.7C61.8141 48.7 59.2474 49.3233 56.6074 50.57V72.9C65.1874 71.2133 70.7608 63.99 73.3274 51.23ZM65.0774 46.28C67.9374 46.28 70.8341 47.0133 73.7674 48.48C73.9141 45.9133 74.0241 43.97 74.0974 42.65C74.2441 41.2567 74.3174 40.4133 74.3174 40.12C74.3174 37.26 73.6574 33.4467 72.3374 28.68C69.5508 29.8533 66.7274 30.44 63.8674 30.44C61.3008 30.44 58.8808 29.8533 56.6074 28.68V48.04C59.4674 46.8667 62.2908 46.28 65.0774 46.28ZM64.3074 27.8C66.8741 27.8 69.3674 27.25 71.7874 26.15C69.8808 22.2633 67.7908 19 65.5174 16.36C63.3908 13.94 60.4208 11.41 56.6074 8.76999V25.93C59.1008 27.1767 61.6674 27.8 64.3074 27.8ZM88.5427 70.26L94.8127 64.98V15.92C94.8127 13.8667 94.4093 11.2267 93.6027 8L96.0227 7.22999C96.3893 8.84333 96.6827 10.2733 96.9027 11.52C97.1227 12.7667 97.306 13.83 97.4527 14.71C98.4793 11.3367 100.789 7.74333 104.383 3.93L106.143 5.36C103.723 8.58666 102.513 12.3633 102.513 16.69V65.42L105.043 67.84L108.673 64.54L110.433 66.41L100.313 75.21L94.0427 69.27L90.3027 72.35L88.5427 70.26ZM113.066 70.48L118.346 65.75V41.88L115.376 41.77V39.24C116.622 39.3133 117.576 39.35 118.236 39.35C118.896 39.35 119.299 39.35 119.446 39.35C123.919 39.35 128.319 38.3233 132.646 36.27L115.376 17.02L124.506 8.88L126.266 10.75L122.856 13.83L145.186 38.69L148.596 35.61L150.136 37.59L145.626 41.77V65.53H148.596V68.06C139.429 68.06 131.912 70.4433 126.046 75.21L117.576 69.82L114.826 72.35L113.066 70.48ZM137.926 66.08V41.66L134.626 38.58C132.426 39.6067 129.566 40.5233 126.046 41.33V64.54L131.766 68.17L137.926 66.08ZM55.4455 162.44L58.0855 160.24V118.44L53.7955 121.63L52.2555 119.65L70.2955 106.45V100.73H72.9356V104.58L79.8655 99.63C92.8455 108.137 99.3355 120.09 99.3355 135.49C99.3355 145.683 96.4389 154.777 90.6455 162.77C84.8522 170.763 77.1155 174.76 67.4355 174.76C58.3422 174.76 50.7155 171.13 44.5555 163.87C38.7622 156.977 35.8655 148.91 35.8655 139.67C35.8655 123.83 44.2989 110.85 61.1655 100.73L62.4855 102.27C61.3122 103.517 60.1389 104.727 58.9655 105.9C57.7922 107.073 56.5822 108.283 55.3355 109.53C52.5489 112.317 50.6055 115.14 49.5055 118C47.6722 122.4 46.7555 129.293 46.7555 138.68C46.7555 161.047 53.3555 172.23 66.5555 172.23C66.7022 172.23 67.0689 172.23 67.6555 172.23C68.3155 172.23 69.1955 172.193 70.2955 172.12V109.86L66.4455 112.61V156.83L56.9855 164.42L55.4455 162.44ZM89.6555 150.23C87.0889 148.543 84.0822 147.7 80.6355 147.7C78.1422 147.7 75.5755 148.323 72.9356 149.57V171.9C81.5155 170.213 87.0889 162.99 89.6555 150.23ZM81.4055 145.28C84.2655 145.28 87.1622 146.013 90.0955 147.48C90.2422 144.913 90.3522 142.97 90.4256 141.65C90.5722 140.257 90.6455 139.413 90.6455 139.12C90.6455 136.26 89.9855 132.447 88.6655 127.68C85.8789 128.853 83.0555 129.44 80.1955 129.44C77.6289 129.44 75.2089 128.853 72.9356 127.68V147.04C75.7956 145.867 78.6189 145.28 81.4055 145.28ZM80.6355 126.8C83.2022 126.8 85.6955 126.25 88.1155 125.15C86.2089 121.263 84.1189 118 81.8456 115.36C79.7189 112.94 76.7489 110.41 72.9356 107.77V124.93C75.4289 126.177 77.9955 126.8 80.6355 126.8ZM105.751 169.26L111.361 164.2V146.93C111.361 143.63 110.591 141.1 109.051 139.34L105.861 141.98L104.211 140L114.441 131.2C117.154 134.353 118.694 137.25 119.061 139.89L125.441 131.2C128.741 135.893 130.904 138.24 131.931 138.24C132.444 138.24 132.957 137.873 133.471 137.14C133.691 136.847 133.911 136.553 134.131 136.26C134.351 135.967 134.571 135.673 134.791 135.38L136.881 136.92C134.534 140.147 133.361 141.76 133.361 141.76C131.674 143.52 130.024 144.4 128.411 144.4C126.431 144.4 124.231 143.08 121.811 140.44L119.061 144.18V164.09L124.121 167.61L128.851 164.31L130.391 166.4L119.061 174.21L110.481 168.27L107.401 171.13L105.751 169.26ZM19.0789 297.63C14.0189 297.63 9.72895 296.09 6.20895 293.01C2.61561 289.857 0.818945 285.787 0.818945 280.8C0.818945 275.007 3.09228 270.387 7.63895 266.94C11.8923 263.713 16.9523 262.1 22.8189 262.1V239.33C22.1589 238.45 21.3156 238.01 20.2889 238.01C17.3556 238.01 15.8889 239.697 15.8889 243.07C15.8889 243.877 16.0723 244.72 16.4389 245.6L14.0189 246.81C13.1389 244.17 12.6989 241.86 12.6989 239.88C12.6989 233.867 16.0723 230.86 22.8189 230.86V209.19C20.5456 207.943 18.4556 207.32 16.5489 207.32C12.3689 207.32 9.17895 209.923 6.97895 215.13L4.66895 214.25C5.25561 212.197 6.02561 210.327 6.97895 208.64C8.00561 206.88 9.14228 205.267 10.3889 203.8C13.4689 200.353 16.8789 198.63 20.6189 198.63C24.1389 198.63 27.1089 199.877 29.5289 202.37C30.3356 203.177 31.1789 204.277 32.0589 205.67C32.9389 207.063 33.8923 208.787 34.9189 210.84L40.8589 222.61C43.4989 224.81 46.9456 225.91 51.1989 225.91C54.3523 225.91 57.3223 225.103 60.1089 223.49V211.5C57.4689 211.5 55.3056 210.327 53.6189 207.98L48.1189 213.37L46.3589 211.5L59.2289 198.63C61.7223 202.443 63.9589 204.35 65.9389 204.35C66.8923 204.35 68.6889 202.883 71.3289 199.95L73.1989 201.71L68.1389 206.77C66.0856 208.677 64.2523 210.18 62.6389 211.28V274.42C57.5789 273.54 53.4356 269.8 50.2089 263.2L44.7089 251.43C43.9023 250.037 42.2523 248.827 39.7589 247.8C37.4856 246.993 35.3956 246.59 33.4889 246.59C30.8489 246.59 28.1356 247.397 25.3489 249.01V262.1C29.0156 262.393 32.3889 263.64 35.4689 265.84L39.3189 262.1L41.1889 263.86L30.4089 274.42C26.0823 271.12 21.7189 269.47 17.3189 269.47C13.7256 269.47 10.6456 270.533 8.07895 272.66C5.43895 275.007 4.11895 277.94 4.11895 281.46C4.11895 285.42 5.62228 288.72 8.62895 291.36C11.6356 293.927 15.1189 295.21 19.0789 295.21C19.8856 295.21 20.9489 295.1 22.2689 294.88L22.8189 297.3C21.2789 297.52 20.0323 297.63 19.0789 297.63ZM33.5989 244.17C36.8256 244.17 39.7223 244.867 42.2889 246.26L27.2189 213.92C26.9256 213.26 26.3023 212.453 25.3489 211.5V246.26C27.8423 244.867 30.5923 244.17 33.5989 244.17ZM60.1089 261V226.46C57.3223 227.78 54.2789 228.44 50.9789 228.44C48.0456 228.44 45.2223 227.89 42.5089 226.79L56.2589 256.27C57.2123 258.47 58.4956 260.047 60.1089 261ZM72.5114 268.26L77.9014 263.31V239.99C77.1681 240.063 76.6181 240.1 76.2514 240.1C75.8848 240.1 75.7014 240.1 75.7014 240.1C75.7014 240.1 75.4814 240.1 75.0414 240.1C74.6014 240.027 73.9048 239.953 72.9514 239.88V237.35C81.0181 237.35 87.8748 234.967 93.5214 230.2L105.181 244.72L85.6014 257.7V263.86L90.6614 266.94L100.451 260.34L101.881 262.54L85.6014 273.21L76.8014 267.82L74.1614 270.35L72.5114 268.26ZM96.6014 247.25L88.5714 237.46L85.6014 238.45V254.73L96.6014 247.25ZM106.564 268.48L111.734 263.97V243.95C109.021 241.457 107.664 238.083 107.664 233.83C107.664 228.037 109.681 223.343 113.714 219.75C117.528 216.377 122.734 213.407 129.334 210.84L129.884 213.04C119.398 217.367 114.154 222.573 114.154 228.66C114.154 232.107 115.841 235.187 119.214 237.9V262.32L123.944 266.72L129.884 262.98V245.6C129.884 242.227 129.078 239.77 127.464 238.23L124.604 240.76L122.844 238.78L132.854 230.2C136.008 232.693 137.584 236.653 137.584 242.08V261.88L142.424 266.5C144.624 265.253 146.751 264.41 148.804 263.97V241.97L144.294 237.57L141.214 240.21L139.564 238.34L148.804 230.2L156.064 236.91L160.354 233.39L162.004 235.37L156.064 240.43V263.2C156.504 263.127 156.834 263.09 157.054 263.09C157.274 263.09 157.384 263.09 157.384 263.09C157.384 263.09 157.531 263.127 157.824 263.2C158.118 263.2 158.558 263.237 159.144 263.31L159.254 265.84C158.301 265.767 157.531 265.73 156.944 265.73C156.358 265.73 155.991 265.73 155.844 265.73C148.804 265.73 142.718 268.223 137.584 273.21L129.664 266.06L118.224 273.21L111.734 267.27L108.214 270.35L106.564 268.48Z" fill="black"/>
</svg>
